#!OML:ASF Y:\EmotionMaleHayes\Project 1\Capture day 1\Session 1\Male1.ASF
:FULLY-SPECIFIED
:DEGREES
222
root -28.8835 17.1922 -0.46439 27.6848 84.8796 25.5538
lowerback 4.58621 2.05058 -4.64834
upperback 1.02162 2.51867 -0.875109
thorax -1.67762 1.2859 1.5494
lowerneck -23.1574 2.71703 3.21985
upperneck 25.5351 3.05468 -0.592135
head 12.3638 1.67315 -0.220362
rclavicle 2.88238e-014 -5.76476e-015
rhumerus -34.6702 5.24744 -88.8831
rradius 33.1405
rwrist 0.375531
rhand -11.6145 -31.0116
rfingers 7.12502
rthumb 14.4284 -60.49
lclavicle 2.88238e-014 -5.76476e-015
lhumerus -29.6359 -12.6036 92.1717
lradius 25.0701
lwrist -14.6997
lhand -15.2771 -26.6721
lfingers 7.12502
lthumb 10.8975 3.02514
rfemur 9.53503 -4.31244 11.6219
rtibia 1.67515
rfoot -16.2401 -8.84766
rtoes 12.5455
lfemur 12.0303 -1.45868 -14.9915
ltibia -2.36859
lfoot -14.8026 19.6901
ltoes -5.56454
223
root -28.8811 17.1921 -0.466276 27.895 84.9159 25.8048
lowerback 4.61909 2.03898 -4.60141
upperback 1.0349 2.5041 -0.888124
thorax -1.67884 1.27838 1.50995
lowerneck -23.0885 2.71245 3.22502
upperneck 25.4531 3.0491 -0.601326
head 12.3179 1.66951 -0.227181
rclavicle -1.78906e-015 1.2921e-014
rhumerus -34.6864 5.25974 -88.9119
rradius 33.1738
rwrist 0.36744
rhand -11.6715 -31.2565
rfingers 7.12502
rthumb 14.3735 -60.7389
lclavicle -1.78906e-015 1.2921e-014
lhumerus -29.723 -12.7777 92.2254
lradius 25.1369
lwrist -14.5325
lhand -13.6095 -26.8532
lfingers 7.12502
lthumb 12.5057 2.75263
rfemur 9.60287 -4.24457 11.6058
rtibia 1.66806
rfoot -16.4108 -8.84964
rtoes 13.6175
lfemur 12.2498 -2.13464 -15.2487
ltibia -2.67842
lfoot -14.853 20.3108
ltoes -5.82969
224
root -28.8812 17.1922 -0.466522 28.2894 84.8996 26.2194
lowerback 4.65458 2.04244 -4.6272
upperback 1.03978 2.50569 -0.899913
thorax -1.69429 1.27963 1.51089
lowerneck -23.0739 2.71633 3.2311
upperneck 25.4353 3.06107 -0.630015
head 12.3089 1.67135 -0.237328
rclavicle -2.00773e-014 2.36554e-014
rhumerus -34.7904 5.27092 -88.9262
rradius 33.3249
rwrist 0.39156
rhand -11.8567 -31.1923
rfingers 7.12502
rthumb 14.1951 -60.6872
lclavicle -2.00773e-014 2.36554e-014
lhumerus -29.7833 -12.9426 92.2934
lradius 25.1725
lwrist -14.3039
lhand -13.34 -26.9764
lfingers 7.12502
lthumb 12.7654 2.61334
rfemur 9.62566 -4.21417 11.5508
rtibia 1.67024
rfoot -16.6023 -8.86931
rtoes 13.7536
lfemur 12.251 -2.00387 -15.2547
ltibia -2.61655
lfoot -14.7713 20.2144
ltoes -6.54046
225
root -28.8787 17.1915 -0.466562 29.9313 84.995 27.88
lowerback 4.64848 1.99665 -4.66768
upperback 1.0705 2.44454 -0.949036
thorax -1.65492 1.24855 1.48797
lowerneck -23.1188 2.74664 3.34374
upperneck 25.4499 3.08469 -0.711632
head 12.3278 1.68133 -0.282304
rclavicle 1.17283e-014 -1.63003e-014
rhumerus -34.8524 5.14453 -88.9291
rradius 33.481
rwrist 0.44671
rhand -11.937 -31.1095
rfingers 7.12502
rthumb 14.1177 -60.6099
lclavicle 1.17283e-014 -1.63003e-014
lhumerus -29.8722 -13.076 92.3086
lradius 25.3224
lwrist -14.1703
lhand -13.5596 -26.8682
lfingers 7.12502
lthumb 12.5537 2.73469
rfemur 9.75004 -4.24246 11.4625
rtibia 1.54864
rfoot -16.6417 -8.98571
rtoes 13.0258
lfemur 12.1308 -1.58057 -15.1655
ltibia -2.41348
lfoot -14.5171 19.7576
ltoes -8.03739
226
root -28.88 17.1879 -0.465995 30.1283 84.7624 28.0199
lowerback 4.56564 2.05722 -4.72351
upperback 1.09241 2.52802 -1.06427
thorax -1.58823 1.28936 1.39873
lowerneck -23.1466 2.7714 3.46683
upperneck 25.399 3.07721 -0.737567
head 12.3161 1.68537 -0.314012
rclavicle 1.05107e-014 -1.07344e-014
rhumerus -34.8049 4.92169 -88.9893
rradius 33.5539
rwrist 0.536663
rhand -11.8765 -31.0878
rfingers 7.12502
rthumb 14.176 -60.5841
lclavicle 1.05107e-014 -1.07344e-014
lhumerus -29.6925 -13.06 92.1671
lradius 25.0745
lwrist -14.3158
lhand -13.5963 -27.0184
lfingers 7.12502
lthumb 12.5183 2.58667
rfemur 9.57709 -4.28244 11.2867
rtibia 1.66622
rfoot -16.5555 -8.77708
rtoes 13.3327
lfemur 12.2247 -1.91656 -15.484
ltibia -2.68512
lfoot -14.7204 20.3061
ltoes -8.37854
227
root -28.8809 17.1854 -0.466183 29.7124 84.6427 27.5427
lowerback 4.52108 2.10436 -4.80489
upperback 1.08856 2.58959 -1.03617
thorax -1.5758 1.32003 1.47046
lowerneck -23.1087 2.75201 3.50368
upperneck 25.3208 3.07194 -0.863205
head 12.2806 1.6685 -0.369751
rclavicle -3.50358e-015 2.08724e-014
rhumerus -34.8479 4.95809 -88.9468
rradius 33.675
rwrist 0.47771
rhand -11.8542 -31.0315
rfingers 7.12502
rthumb 14.1975 -60.5263
lclavicle -3.50358e-015 2.08724e-014
lhumerus -29.7112 -13.389 92.322
lradius 25.1188
lwrist -14.0932
lhand -13.9326 -26.9348
lfingers 7.12502
lthumb 12.1941 2.68972
rfemur 9.40704 -4.36157 11.2218
rtibia 1.81068
rfoot -16.5745 -8.54545
rtoes 14.2345
lfemur 12.1897 -1.8814 -15.5231
ltibia -2.7458
lfoot -14.7763 20.437
ltoes -8.74324
228
root -28.8808 17.1843 -0.465511 29.8012 84.6275 27.5812
lowerback 4.49976 2.10224 -4.86308
upperback 1.08145 2.58519 -1.005
thorax -1.57488 1.31798 1.53579
lowerneck -23.1188 2.71629 3.56169
upperneck 25.3203 3.0536 -1.0465
head 12.2862 1.6406 -0.45201
rclavicle -1.4064e-014 7.95139e-015
rhumerus -34.9197 5.01549 -88.8994
rradius 33.7946
rwrist 0.36968
rhand -11.7645 -31.1154
rfingers 7.12502
rthumb 14.2839 -60.6041
lclavicle -1.4064e-014 7.95139e-015
lhumerus -29.78 -13.8452 92.5214
lradius 25.212
lwrist -13.718
lhand -15.0661 -26.6861
lfingers 7.12502
lthumb 11.101 3.0003
rfemur 9.31934 -4.39698 11.2148
rtibia 1.8699
rfoot -16.6333 -8.49407
rtoes 13.3335
lfemur 12.0096 -1.28014 -15.3134
ltibia -2.53216
lfoot -14.4617 19.9278
ltoes -9.76605
229
root -28.8831 17.1829 -0.466326 29.7727 84.6093 27.4944
lowerback 4.52566 2.10001 -4.88218
upperback 1.07122 2.57934 -0.985573
thorax -1.60127 1.31569 1.56553
lowerneck -23.3033 2.67196 3.54455
upperneck 25.4722 3.01694 -1.12643
head 12.3826 1.61146 -0.483179
rclavicle -2.53947e-014 3.16068e-014
rhumerus -34.989 5.06839 -88.8626
rradius 33.9237
rwrist 0.308898
rhand -11.6596 -31.0323
rfingers 7.12502
rthumb 14.385 -60.5138
lclavicle -2.53947e-014 3.16068e-014
lhumerus -29.8187 -14.2764 92.6737
lradius 25.3016
lwrist -13.3667
lhand -13.4243 -27.1584
lfingers 7.12502
lthumb 12.6842 2.43639
rfemur 9.13046 -4.61054 11.1408
rtibia 2.08945
rfoot -16.705 -8.31088
rtoes 12.2734
lfemur 11.9481 -1.49004 -15.405
ltibia -2.51178
lfoot -14.5508 20.0803
ltoes -9.49391
230
root -28.8855 17.1809 -0.466398 29.6687 84.6415 27.3394
lowerback 4.57263 2.08295 -4.84917
upperback 1.05979 2.55471 -0.988624
thorax -1.6362 1.3041 1.54358
lowerneck -23.4457 2.65881 3.4674
upperneck 25.5671 2.99954 -1.04838
head 12.445 1.60641 -0.441709
rclavicle -1.76918e-014 2.5842e-015
rhumerus -35.1033 5.20111 -88.9297
rradius 34.1052
rwrist 0.256617
rhand -11.6786 -30.9473
rfingers 7.12502
rthumb 14.3667 -60.4301
lclavicle -1.76918e-014 2.5842e-015
lhumerus -29.8638 -14.5125 92.5925
lradius 25.7443
lwrist -13.1232
lhand -11.5655 -27.2797
lfingers 7.12502
lthumb 14.4757 2.19542
rfemur 8.94043 -4.98215 11.0607
rtibia 2.37668
rfoot -16.8996 -7.94738
rtoes 12.311
lfemur 11.798 -1.51692 -15.3831
ltibia -2.21735
lfoot -15.1039 19.893
ltoes -8.71788
231
root -28.8853 17.1786 -0.465407 30.4435 84.6281 28.1226
lowerback 4.61655 2.06499 -4.91667
upperback 1.07999 2.526 -1.02613
thorax -1.6392 1.29019 1.54333
lowerneck -23.4727 2.65823 3.33303
upperneck 25.5109 2.99306 -0.877495
head 12.4222 1.61257 -0.355486
rclavicle -9.21864e-015 2.18663e-015
rhumerus -35.2026 5.27826 -89.0055
rradius 34.2894
rwrist 0.214265
rhand -11.8506 -30.8499
rfingers 7.12502
rthumb 14.201 -60.3445
lclavicle -9.21864e-015 2.18663e-015
lhumerus -29.9362 -14.7025 92.4135
lradius 26.2012
lwrist -13.5137
lhand -10.7347 -27.7017
lfingers 7.12502
lthumb 15.2761 1.71419
rfemur 8.83971 -5.10694 10.9721
rtibia 2.62437
rfoot -17.2309 -7.85996
rtoes 11.2362
lfemur 11.6047 -0.85364 -15.2339
ltibia -1.67608
lfoot -15.5388 19.117
ltoes -9.20273
232
root -28.8852 17.1741 -0.468228 31.3089 84.6952 28.9967
lowerback 4.67913 2.00905 -4.83862
upperback 1.10424 2.45235 -1.10196
thorax -1.63793 1.25327 1.42512
lowerneck -23.5896 2.64713 3.22047
upperneck 25.5584 2.95339 -0.674491
head 12.4575 1.61122 -0.264776
rclavicle -1.4561e-014 1.27222e-014
rhumerus -35.2046 5.13738 -89.0791
rradius 34.3066
rwrist 0.222783
rhand -11.9453 -30.6341
rfingers 7.12502
rthumb 14.1097 -60.1351
lclavicle -1.4561e-014 1.27222e-014
lhumerus -30.0019 -15.3586 92.3952
lradius 26.8669
lwrist -12.3095
lhand -10.0131 -27.8632
lfingers 7.12502
lthumb 15.971 1.4984
rfemur 8.70341 -5.12679 10.9779
rtibia 2.96295
rfoot -17.6566 -8.02288
rtoes 9.51641
lfemur 11.3728 -0.200797 -15.0629
ltibia -1.14488
lfoot -15.5338 18.4021
ltoes -10.4994
233
root -28.8861 17.1679 -0.461213 30.6235 84.7447 28.3186
lowerback 4.74964 1.97005 -4.84109
upperback 1.16192 2.39916 -1.0575
thorax -1.61658 1.22569 1.47452
lowerneck -23.875 2.6276 2.99088
upperneck 25.785 2.94496 -0.469798
head 12.596 1.61284 -0.144837
rclavicle -1.63252e-014 1.45113e-014
rhumerus -35.1795 5.10499 -89.0941
rradius 34.362
rwrist 0.218684
rhand -11.7587 -30.7567
rfingers 7.12502
rthumb 14.2895 -60.2451
lclavicle -1.63252e-014 1.45113e-014
lhumerus -30.0095 -16.0073 92.4479
lradius 27.383
lwrist -11.8626
lhand -10.927 -28.1845
lfingers 7.12502
lthumb 15.0908 1.24545
rfemur 8.54033 -4.82694 11.2455
rtibia 3.29419
rfoot -18.2375 -8.15802
rtoes 9.98422
lfemur 11.1023 0.815628 -14.5796
ltibia -0.502841
lfoot -15.3726 17.4127
ltoes -11.7689
234
root -28.8716 17.1649 -0.452126 37.7949 85.6897 35.7506
lowerback 4.93694 1.59394 -4.84657
upperback 1.36502 1.89848 -1.01992
thorax -1.4819 0.971954 1.54781
lowerneck -24.1673 2.65395 2.70898
upperneck 25.8154 2.96704 -0.11378
head 12.6546 1.64097 0.0460915
rclavicle -2.57178e-014 1.33186e-014
rhumerus -35.2831 5.2763 -89.1665
rradius 34.6856
rwrist 0.0257886
rhand -11.5455 -31.0375
rfingers 7.12502
rthumb 14.495 -60.5112
lclavicle -2.57178e-014 1.33186e-014
lhumerus -29.886 -16.4602 92.3284
lradius 28.2171
lwrist -11.1939
lhand -11.3207 -28.504
lfingers 7.12502
lthumb 14.7115 0.953996
rfemur 9.27326 -4.81831 11.4253
rtibia 3.0147
rfoot -18.8415 -8.87967
rtoes 11.1329
lfemur 10.7882 1.41185 -14.0623
ltibia 0.443599
lfoot -15.2919 15.7512
ltoes -12.9295
235
root -28.8728 17.1588 -0.44839 37.277 85.8655 35.3606
lowerback 5.14038 1.59341 -4.69632
upperback 1.47707 1.89913 -1.01312
thorax -1.47551 0.97111 1.4672
lowerneck -24.2885 2.60802 2.47599
upperneck 25.6525 2.88526 0.189307
head 12.6022 1.62053 0.185931
rclavicle 4.27387e-015 3.8763e-014
rhumerus -35.4268 5.44776 -89.2905
rradius 35.0429
rwrist -0.345561
rhand -11.462 -31.0798
rfingers 7.12502
rthumb 14.5754 -60.5477
lclavicle 4.27387e-015 3.8763e-014
lhumerus -29.8338 -17.3171 92.2754
lradius 29.2119
lwrist -10.2961
lhand -12.0318 -28.7882
lfingers 7.12502
lthumb 14.0264 0.718564
rfemur 9.21831 -5.11987 11.5278
rtibia 3.45637
rfoot -18.8977 -8.78378
rtoes 9.95054
lfemur 10.7112 1.555 -13.7927
ltibia 0.873667
lfoot -15.7017 15.5021
ltoes -13.2296
